<svg width="25" height="24" viewBox="0 0 25 24" fill="none" xmlns="http://www.w3.org/2000/svg">
<path d="M21.5 21H5.1C4.53995 21 4.25992 21 4.04601 20.891C3.85785 20.7951 3.70487 20.6422 3.60899 20.454C3.5 20.2401 3.5 19.9601 3.5 19.4V3M21.5 15L16.0657 9.56569C15.8677 9.36768 15.7687 9.26867 15.6545 9.23158C15.5541 9.19895 15.4459 9.19895 15.3455 9.23158C15.2313 9.26867 15.1323 9.36768 14.9343 9.56569L13.0657 11.4343C12.8677 11.6323 12.7687 11.7313 12.6545 11.7684C12.5541 11.8011 12.4459 11.8011 12.3455 11.7684C12.2313 11.7313 12.1323 11.6323 11.9343 11.4343L7.5 7M21.5 15H17.5M21.5 15V11" stroke="white" stroke-width="2" stroke-linecap="round" stroke-linejoin="round"/>
</svg>
