<svg width="25" height="24" viewBox="0 0 25 24" fill="none" xmlns="http://www.w3.org/2000/svg">
<path d="M8.5 16.9998H16.5M11.5177 2.76376L4.73539 8.03888C4.28202 8.39151 4.05534 8.56782 3.89203 8.78862C3.74737 8.9842 3.6396 9.20454 3.57403 9.43881C3.5 9.70328 3.5 9.99046 3.5 10.5649V17.7998C3.5 18.9199 3.5 19.4799 3.71799 19.9078C3.90973 20.2841 4.21569 20.5901 4.59202 20.7818C5.01984 20.9998 5.57989 20.9998 6.7 20.9998H18.3C19.4201 20.9998 19.9802 20.9998 20.408 20.7818C20.7843 20.5901 21.0903 20.2841 21.282 19.9078C21.5 19.4799 21.5 18.9199 21.5 17.7998V10.5649C21.5 9.99046 21.5 9.70328 21.426 9.43881C21.3604 9.20454 21.2526 8.9842 21.108 8.78862C20.9447 8.56782 20.718 8.39151 20.2646 8.03889L13.4823 2.76376C13.131 2.49051 12.9553 2.35388 12.7613 2.30136C12.5902 2.25502 12.4098 2.25502 12.2387 2.30136C12.0447 2.35388 11.869 2.49051 11.5177 2.76376Z" stroke="#2D2D2D" stroke-width="2" stroke-linecap="round" stroke-linejoin="round"/>
</svg>
