<svg width="25" height="24" viewBox="0 0 25 24" fill="none" xmlns="http://www.w3.org/2000/svg">
<rect x="1.5" y="1" width="22" height="22" rx="4" fill="#2D2D2D"/>
<rect x="1.5" y="1" width="22" height="22" rx="4" stroke="#2D2D2D" stroke-width="2"/>
<path d="M19.1668 19.5C19.1668 18.337 19.1668 17.7556 19.0233 17.2824C18.7002 16.2171 17.8664 15.3833 16.8011 15.0602C16.3279 14.9167 15.7465 14.9167 14.5835 14.9167H10.4168C9.25386 14.9167 8.67237 14.9167 8.19921 15.0602C7.13387 15.3833 6.3002 16.2171 5.97703 17.2824C5.8335 17.7556 5.8335 18.337 5.8335 19.5M16.2502 8.25C16.2502 10.3211 14.5712 12 12.5002 12C10.4291 12 8.75016 10.3211 8.75016 8.25C8.75016 6.17893 10.4291 4.5 12.5002 4.5C14.5712 4.5 16.2502 6.17893 16.2502 8.25Z" stroke="white" stroke-width="2" stroke-linecap="round" stroke-linejoin="round"/>
</svg>
