<svg width="20" height="21" viewBox="0 0 20 21" fill="none" xmlns="http://www.w3.org/2000/svg">
<path d="M10.0005 13C11.3812 13 12.5005 11.8807 12.5005 10.5C12.5005 9.11925 11.3812 8 10.0005 8C8.61975 8 7.50049 9.11925 7.50049 10.5C7.50049 11.8807 8.61975 13 10.0005 13Z" stroke="black" stroke-width="2" stroke-linecap="round" stroke-linejoin="round"/>
<path d="M7.74147 16.6427L8.22851 17.7381C8.37333 18.0641 8.60958 18.3412 8.90866 18.5356C9.20783 18.73 9.55691 18.8335 9.91366 18.8334C10.2705 18.8335 10.6196 18.73 10.9187 18.5356C11.2178 18.3412 11.4541 18.0641 11.5989 17.7381L12.0859 16.6427C12.2593 16.254 12.5509 15.93 12.9192 15.7167C13.2899 15.5029 13.7187 15.4118 14.1442 15.4566L15.3359 15.5834C15.6907 15.6209 16.0487 15.5547 16.3665 15.3928C16.6843 15.231 16.9484 14.9803 17.1267 14.6714C17.3052 14.3626 17.3902 14.0087 17.3714 13.6525C17.3527 13.2963 17.231 12.9532 17.0211 12.6649L16.3156 11.6954C16.0643 11.3477 15.9301 10.9291 15.9322 10.5001C15.9322 10.0722 16.0677 9.65541 16.3192 9.30933L17.0248 8.3399C17.2347 8.05154 17.3564 7.70847 17.3752 7.35231C17.3939 6.99615 17.3088 6.6422 17.1303 6.33341C16.9521 6.02444 16.6881 5.77382 16.3702 5.61194C16.0523 5.45006 15.6943 5.38386 15.3397 5.42138L14.148 5.54823C13.7224 5.59292 13.2936 5.50185 12.923 5.28805C12.5539 5.07362 12.2622 4.74788 12.0897 4.35749L11.5989 3.26211C11.4541 2.93606 11.2178 2.65901 10.9187 2.46458C10.6196 2.27015 10.2705 2.16669 9.91366 2.16675C9.55691 2.16669 9.20783 2.27015 8.90866 2.46458C8.60958 2.65901 8.37333 2.93606 8.22851 3.26211L7.74147 4.35749C7.56891 4.74788 7.2772 5.07362 6.90814 5.28805C6.53749 5.50185 6.10869 5.59292 5.68314 5.54823L4.48777 5.42138C4.13304 5.38386 3.77505 5.45006 3.45719 5.61194C3.13934 5.77382 2.87528 6.02444 2.69703 6.33341C2.51854 6.6422 2.43351 6.99615 2.45225 7.35231C2.47099 7.70847 2.59269 8.05154 2.80259 8.3399L3.50814 9.30933C3.75975 9.65541 3.89525 10.0722 3.89518 10.5001C3.89525 10.9279 3.75975 11.3448 3.50814 11.6908L2.80259 12.6602C2.59269 12.9486 2.47099 13.2917 2.45225 13.6478C2.43351 14.004 2.51854 14.358 2.69703 14.6667C2.87546 14.9756 3.13955 15.2261 3.45736 15.3879C3.77517 15.5497 4.13307 15.6161 4.48777 15.5787L5.67944 15.4519C6.10499 15.4072 6.53378 15.4983 6.90444 15.7121C7.27488 15.9259 7.56794 16.2517 7.74147 16.6427Z" stroke="black" stroke-width="2" stroke-linecap="round" stroke-linejoin="round"/>
</svg>
